# xmcd
#
# Track frame offsets:
#	150
#	12210
#	27389
#	42122
#	58647
#	76935
#	90893
#	107597
#	123590
#	138574
#	152821
#	162744
#	185747
#	204750
#
# Disc length: 2985 seconds
#
# Revision: 0
# Processed by: cddbd v1.5.2PL0 Copyright (c) Steve Scherf et al.
# Submitted via: audiograbber 1.83.01
#
DISCID=b10ba70e
DTITLE=The Priscillas - 10,000 Volts
DYEAR=2009
DGENRE=Rock
TTITLE0=(All The Way To) Holloway
TTITLE1=Timing
TTITLE2=Jimmy In A Dress
TTITLE3=Lucy's Gone
TTITLE4=Fly In My Drink
TTITLE5=Oh Keiko
TTITLE6=Outer Space
TTITLE7=Superhero
TTITLE8=Demolition Kids
TTITLE9=Come Out!
TTITLE10=Y.O.Y.
TTITLE11=Don't Follow Me
TTITLE12=The King Is Dead
TTITLE13=Dirty Old T Shirt
EXTD=
EXTT0=
EXTT1=
EXTT2=
EXTT3=
EXTT4=
EXTT5=
EXTT6=
EXTT7=
EXTT8=
EXTT9=
EXTT10=
EXTT11=
EXTT12=
EXTT13=
PLAYORDER=
